<?xml version="1.0" standalone="no"?>
<!DOCTYPE svg PUBLIC "-//W3C//DTD SVG 20010904//EN"
 "http://www.w3.org/TR/2001/REC-SVG-20010904/DTD/svg10.dtd">
<svg version="1.0" xmlns="http://www.w3.org/2000/svg"
 width="463.000000pt" height="463.000000pt" viewBox="0 0 463.000000 463.000000"
 preserveAspectRatio="xMidYMid meet">
<metadata>
Created by potrace 1.11, written by Peter Selinger 2001-2013
</metadata>
<g transform="translate(0.000000,463.000000) scale(0.100000,-0.100000)"
fill="#000000" stroke="none">
<path d="M1802 4515 c-25 -25 -47 -53 -48 -62 -2 -9 -6 -19 -11 -22 -4 -3 -10
-15 -11 -26 -2 -11 -8 -23 -14 -26 -5 -3 -9 -9 -9 -13 1 -3 0 -8 0 -11 -1 -3
-3 -14 -4 -25 -1 -11 -3 -21 -4 -22 -9 -12 -9 -48 1 -48 6 0 8 -3 5 -6 -3 -4
-2 -14 3 -24 8 -16 3 -17 -61 -12 -57 4 -73 2 -89 -13 -11 -10 -20 -14 -20 -9
0 5 -4 3 -9 -5 -6 -9 -26 -14 -55 -14 -26 0 -48 -3 -51 -7 -2 -4 -16 -6 -30
-5 -16 2 -25 -2 -25 -11 0 -8 -4 -14 -9 -14 -14 0 -22 -31 -11 -45 5 -6 8 -14
5 -17 -3 -3 2 -11 11 -19 16 -13 27 -17 71 -24 34 -5 41 -13 38 -40 -1 -14 1
-25 5 -25 14 0 8 -104 -8 -128 -9 -14 -17 -32 -18 -40 -2 -8 -6 -18 -11 -21
-4 -3 -9 -13 -11 -21 -1 -8 -12 -39 -24 -69 -12 -29 -21 -60 -21 -67 0 -8 -4
-14 -9 -14 -5 0 -6 -4 -3 -10 3 -5 1 -10 -6 -10 -7 0 -10 -3 -6 -6 3 -4 0 -19
-9 -35 -8 -16 -12 -29 -9 -29 6 0 -26 -52 -37 -60 -3 -3 -60 -5 -125 -5 l-118
0 0 -1080 0 -1080 353 0 c230 0 353 -3 354 -10 3 -23 5 -31 15 -55 21 -48 35
-85 38 -100 2 -8 13 -37 25 -63 18 -41 20 -58 14 -115 -9 -80 -9 -112 1 -235
5 -72 4 -97 -7 -108 -7 -8 -14 -27 -16 -43 -2 -16 -13 -50 -26 -75 -12 -25
-22 -50 -21 -56 2 -22 28 -90 37 -96 11 -7 19 -41 25 -118 9 -111 67 -211 123
-211 20 0 29 8 42 37 10 25 13 42 7 49 -7 8 -1 25 16 50 29 43 28 60 -6 189
-11 39 -22 110 -26 158 l-6 88 42 -2 c27 -2 47 3 57 13 18 18 25 51 12 59 -5
3 3 21 18 38 27 33 27 33 12 84 -29 94 -30 124 -9 190 10 34 24 107 30 163 6
55 16 116 21 135 l10 34 682 0 683 0 0 1123 1 1122 -26 0 c-23 0 -110 34 -110
43 0 7 37 47 41 44 3 -1 -1 4 -7 12 -17 19 -80 6 -102 -20 -36 -43 -71 -52
-192 -51 -178 2 -410 54 -494 110 -26 18 -65 41 -86 52 -35 18 -152 100 -192
134 -9 8 -22 33 -28 56 -8 31 -22 49 -55 72 l-43 31 -7 106 c-8 128 -8 130
-44 175 -16 20 -44 67 -61 104 -58 122 -104 152 -231 152 l-81 0 -46 -45z
m-67 -596 c-2 -10 0 -19 6 -19 5 0 7 -10 5 -22 -3 -13 -5 -27 -5 -31 -1 -4
-17 -15 -36 -23 -20 -8 -33 -19 -30 -24 3 -5 -4 -14 -15 -20 -11 -6 -20 -17
-20 -25 0 -8 -4 -15 -10 -15 -17 0 -11 21 35 116 32 67 49 92 59 88 8 -3 13
-14 11 -25z"/>
</g>
</svg>
